{"title":"Action Jackson (2014) DVDScr Rip The Shadow.avi","uid":11643719,"size":1836900120,"categoryP":"video","categoryS":"movies","magnet":"?xt=urn:btih:06141f36960dccf49e9cfd1c667df46b1be84387&amp;dn=Action+Jackson+%282014%29+DVDScr+Rip+The+Shadow.avi&amp;tr=udp%3A%2F%2Ftracker.openbittorrent.com%3A80&amp;tr=udp%3A%2F%2Fopen.demonii.com%3A1337&amp;tr=udp%3A%2F%2Ftracker.coppersurfer.tk%3A6969&amp;tr=udp%3A%2F%2Fexodus.desync.com%3A6969","seeders":7,"leechers":2,"uploader":"inovai","files":1,"time":1417792866,"description":"Action Jackson (2014) DVDScr Rip The Shadow\n\nCover:\n &lt;a href=&quot;\nhttp://forum.primetimeshow.in/viewtopic.php?f=7&amp;t=827&quot; rel=&quot;nofollow&quot; target=&quot;_NEW&quot;&gt;\nhttp://forum.primetimeshow.in/viewtopic.php?f=7&amp;t=827&lt;/a&gt;\n\nScreenshots:\n &lt;a href=&quot;\nhttp://m.primetimeshow.in/share-339A_5481BE7C.html&quot; rel=&quot;nofollow&quot; target=&quot;_NEW&quot;&gt;\nhttp://m.primetimeshow.in/share-339A_5481BE7C.html&lt;/a&gt;\n &lt;a href=&quot;\nhttp://m.primetimeshow.in/share-7AE7_5481BE7C.html&quot; rel=&quot;nofollow&quot; target=&quot;_NEW&quot;&gt;\nhttp://m.primetimeshow.in/share-7AE7_5481BE7C.html&lt;/a&gt;\n &lt;a href=&quot;\nhttp://m.primetimeshow.in/share-EEA5_5481BE7C.html&quot; rel=&quot;nofollow&quot; target=&quot;_NEW&quot;&gt;\nhttp://m.primetimeshow.in/share-EEA5_5481BE7C.html&lt;/a&gt;\n &lt;a href=&quot;\nhttp://m.primetimeshow.in/share-109F_5481BE7C.html&quot; rel=&quot;nofollow&quot; target=&quot;_NEW&quot;&gt;\nhttp://m.primetimeshow.in/share-109F_5481BE7C.html&lt;/a&gt;\n &lt;a href=&quot;\nhttp://m.primetimeshow.in/share-737F_5481BE7C.html&quot; rel=&quot;nofollow&quot; target=&quot;_NEW&quot;&gt;\nhttp://m.primetimeshow.in/share-737F_5481BE7C.html&lt;/a&gt;\n\nGeneral Info:\n\nComplete name : Action Jackson (2014) DVDScr Rip The Shadow.avi\nFormat : AVI\nFormat/Info : Audio Video Interleave\nFile size : 1.71 GiB\nDuration : 2h 26mn\nOverall bit rate : 1 669 Kbps\nWriting application : Lavf51.12.1\nWriting library : Boilsoft AVI tool build 30012/release\n\nVideo\nID : 0\nFormat : MPEG-4 Visual\nCodec ID : DIV3\nCodec ID/Hint : DivX 3 Low\nDuration : 2h 26mn\nBit rate : 1 529 Kbps\nWidth : 720 pixels\nHeight : 576 pixels\nDisplay aspect ratio : 5:4\nFrame rate : 25.000 fps\nStandard : PAL\nColor space : YUV\nChroma subsampling : 4:2:0\nBit depth : 8 bits\nCompression mode : Lossy\nBits/(Pixel*Frame) : 0.147\nStream size : 1.57 GiB (92%)\n\nAudio\nID : 1\nFormat : MPEG Audio\nFormat version : Version 1\nFormat profile : Layer 3\nMode : Joint stereo\nMode extension : MS Stereo\nCodec ID : 55\nCodec ID/Hint : MP3\nDuration : 2h 26mn\nBit rate mode : Constant\nBit rate : 128 Kbps\nChannel(s) : 2 channels\nSampling rate : 44.1 KHz\nCompression mode : Lossy\nStream size : 134 MiB (8%)\nAlignment : Aligned on interleaves\nInterleave, duration : 26 ms (0.65 video frame)\nInterleave, preload duratio : 522 ms\n &lt;a href=&quot;\nhttp://i.imgur.com/eCEFmlD.jpg&quot; rel=&quot;nofollow&quot; target=&quot;_NEW&quot;&gt;\nhttp://i.imgur.com/eCEFmlD.jpg&lt;/a&gt;\n\nThanks to Ripper!!\n\nSeed n Enjoy!!","torrent":{"xt":"urn:btih:06141f36960dccf49e9cfd1c667df46b1be84387","amp;dn":"Action+Jackson+%282014%29+DVDScr+Rip+The+Shadow.avi","amp;tr":["udp%3A%2F%2Ftracker.openbittorrent.com%3A80","udp%3A%2F%2Fopen.demonii.com%3A1337","udp%3A%2F%2Ftracker.coppersurfer.tk%3A6969","udp%3A%2F%2Fexodus.desync.com%3A6969"],"infoHash":"06141f36960dccf49e9cfd1c667df46b1be84387","infoHashBuffer":{"type":"Buffer","data":[6,20,31,54,150,13,204,244,158,156,253,28,102,125,244,107,27,232,67,135]},"announce":[],"urlList":[]}}